<?xml version="1.0" encoding="UTF-8" standalone="no"?>
<!-- Created with Inkscape (http://www.inkscape.org/) -->

<svg
   xmlns:dc="http://purl.org/dc/elements/1.1/"
   xmlns:cc="http://creativecommons.org/ns#"
   xmlns:rdf="http://www.w3.org/1999/02/22-rdf-syntax-ns#"
   xmlns:svg="http://www.w3.org/2000/svg"
   xmlns="http://www.w3.org/2000/svg"
   xmlns:sodipodi="http://sodipodi.sourceforge.net/DTD/sodipodi-0.dtd"
   xmlns:inkscape="http://www.inkscape.org/namespaces/inkscape"
   width="100"
   height="100"
   id="svg2"
   version="1.1"
   inkscape:version="0.48.4 r9939"
   sodipodi:docname="icon_mail.svg">
  <defs
     id="defs4" />
  <sodipodi:namedview
     id="base"
     pagecolor="#ffffff"
     bordercolor="#666666"
     borderopacity="1.0"
     inkscape:pageopacity="0.0"
     inkscape:pageshadow="2"
     inkscape:zoom="7.9195959"
     inkscape:cx="44.704104"
     inkscape:cy="58.026522"
     inkscape:document-units="px"
     inkscape:current-layer="layer1"
     showgrid="true"
     inkscape:object-nodes="true"
     inkscape:snap-nodes="true"
     inkscape:snap-bbox="true"
     fit-margin-top="0"
     fit-margin-left="0"
     fit-margin-right="0"
     fit-margin-bottom="0"
     inkscape:window-width="1362"
     inkscape:window-height="711"
     inkscape:window-x="0"
     inkscape:window-y="36"
     inkscape:window-maximized="0">
    <inkscape:grid
       type="xygrid"
       id="grid3272"
       empspacing="5"
       visible="true"
       enabled="true"
       snapvisiblegridlinesonly="true"
       originx="-115px"
       originy="-479.99999px" />
  </sodipodi:namedview>
  <metadata
     id="metadata7">
    <rdf:RDF>
      <cc:Work
         rdf:about="">
        <dc:format>image/svg+xml</dc:format>
        <dc:type
           rdf:resource="http://purl.org/dc/dcmitype/StillImage" />
        <dc:title></dc:title>
      </cc:Work>
    </rdf:RDF>
  </metadata>
  <g
     inkscape:label="Layer 1"
     inkscape:groupmode="layer"
     id="layer1"
     transform="translate(-115,-472.36218)">
    <path
       style="fill:#202020;fill-opacity:1;stroke:none"
       d="m 125,472.36218 c 0,0 -10,0 -10,10 0,10 0,80 0,80 0,0 0,10 10,10 10,0 80,0 80,0 0,0 10,0 10,-10 0,-10 0,-80 0,-80 0,0 0,-10 -10,-10 -10,0 -80,0 -80,0 z"
       id="path4225"
       inkscape:connector-curvature="0"
       sodipodi:nodetypes="cscscscsc" />
    <path
       style="fill:#ffffff;fill-opacity:1;stroke:none"
       d="M 15.71875 25 C 14.304041 25 13.238431 25.320067 12.4375 25.78125 L 50 55 L 87.53125 25.8125 C 85.987589 25.00481 84.28125 25 84.28125 25 L 15.71875 25 z M 89.90625 28.96875 L 60.40625 51.90625 L 89.71875 71.46875 C 89.976995 70.653028 90 70 90 70 L 90 30 C 90 29.625567 89.965542 29.289203 89.90625 28.96875 z M 10.15625 29 C 10.025643 29.576822 10 30 10 30 L 10 70 C 10 70.574887 10.084933 71.080961 10.21875 71.53125 L 39.59375 51.90625 L 10.15625 29 z M 43.09375 54.625 L 13.25 74.5 C 14.540437 74.970944 15.71875 75 15.71875 75 L 84.28125 75 C 85.309656 75 86.151964 74.828104 86.84375 74.5625 L 56.9375 54.625 L 50 60 L 43.09375 54.625 z "
       id="path4281"
       transform="translate(115,472.36218)" />
  </g>
</svg>
